<mxfile host="Electron" agent="Mozilla/5.0 (Macintosh; Intel Mac OS X 10_15_7) AppleWebKit/537.36 (KHTML, like Gecko) draw.io/28.0.4 Chrome/138.0.7204.97 Electron/37.2.1 Safari/537.36" version="28.0.4">
  <diagram name="Page-1" id="b5b7bab2-c9e2-2cf4-8b2a-24fd1a2a6d21">
    <mxGraphModel dx="828" dy="778" grid="1" gridSize="10" guides="1" tooltips="1" connect="1" arrows="1" fold="1" page="1" pageScale="1" pageWidth="827" pageHeight="1169" background="none" math="0" shadow="0">
      <root>
        <mxCell id="0" />
        <mxCell id="1" parent="0" />
        <mxCell id="IdJ8eYHZcSURCVZ-z_sK-2" value="API" style="shape=umlFrame;whiteSpace=wrap;html=1;pointerEvents=0;" parent="1" vertex="1">
          <mxGeometry x="155" y="240" width="460" height="320" as="geometry" />
        </mxCell>
        <mxCell id="IdJ8eYHZcSURCVZ-z_sK-5" style="edgeStyle=orthogonalEdgeStyle;rounded=0;orthogonalLoop=1;jettySize=auto;html=1;entryX=0.5;entryY=0;entryDx=0;entryDy=0;" parent="1" source="IdJ8eYHZcSURCVZ-z_sK-3" target="IdJ8eYHZcSURCVZ-z_sK-4" edge="1">
          <mxGeometry relative="1" as="geometry" />
        </mxCell>
        <mxCell id="IdJ8eYHZcSURCVZ-z_sK-3" value="UsuÃ¡rio" style="shape=umlActor;verticalLabelPosition=bottom;verticalAlign=top;html=1;" parent="1" vertex="1">
          <mxGeometry x="220" y="70" width="30" height="60" as="geometry" />
        </mxCell>
        <mxCell id="IdJ8eYHZcSURCVZ-z_sK-24" style="edgeStyle=orthogonalEdgeStyle;rounded=0;orthogonalLoop=1;jettySize=auto;html=1;startArrow=classic;startFill=1;" parent="1" source="IdJ8eYHZcSURCVZ-z_sK-4" target="IdJ8eYHZcSURCVZ-z_sK-15" edge="1">
          <mxGeometry relative="1" as="geometry" />
        </mxCell>
        <mxCell id="IdJ8eYHZcSURCVZ-z_sK-4" value="Totem Cliente/ Painel Adm" style="shape=module;align=left;spacingLeft=20;align=center;verticalAlign=top;whiteSpace=wrap;html=1;" parent="1" vertex="1">
          <mxGeometry x="322.5" y="150" width="125" height="45" as="geometry" />
        </mxCell>
        <mxCell id="IdJ8eYHZcSURCVZ-z_sK-11" style="edgeStyle=orthogonalEdgeStyle;rounded=0;orthogonalLoop=1;jettySize=auto;html=1;entryX=0.5;entryY=0;entryDx=0;entryDy=0;startArrow=classic;startFill=1;" parent="1" source="IdJ8eYHZcSURCVZ-z_sK-7" target="IdJ8eYHZcSURCVZ-z_sK-9" edge="1">
          <mxGeometry relative="1" as="geometry" />
        </mxCell>
        <mxCell id="IdJ8eYHZcSURCVZ-z_sK-7" value="&lt;b&gt;Gateway&lt;/b&gt;" style="html=1;dropTarget=0;whiteSpace=wrap;" parent="1" vertex="1">
          <mxGeometry x="310" y="414" width="150" height="50" as="geometry" />
        </mxCell>
        <mxCell id="IdJ8eYHZcSURCVZ-z_sK-8" value="" style="shape=module;jettyWidth=8;jettyHeight=4;" parent="IdJ8eYHZcSURCVZ-z_sK-7" vertex="1">
          <mxGeometry x="1" width="20" height="20" relative="1" as="geometry">
            <mxPoint x="-27" y="7" as="offset" />
          </mxGeometry>
        </mxCell>
        <mxCell id="IdJ8eYHZcSURCVZ-z_sK-23" style="edgeStyle=orthogonalEdgeStyle;rounded=0;orthogonalLoop=1;jettySize=auto;html=1;startArrow=classic;startFill=1;" parent="1" source="IdJ8eYHZcSURCVZ-z_sK-9" target="IdJ8eYHZcSURCVZ-z_sK-18" edge="1">
          <mxGeometry relative="1" as="geometry" />
        </mxCell>
        <mxCell id="IdJ8eYHZcSURCVZ-z_sK-9" value="&lt;b&gt;Repository&lt;/b&gt;" style="html=1;dropTarget=0;whiteSpace=wrap;" parent="1" vertex="1">
          <mxGeometry x="310" y="496" width="150" height="50" as="geometry" />
        </mxCell>
        <mxCell id="IdJ8eYHZcSURCVZ-z_sK-10" value="" style="shape=module;jettyWidth=8;jettyHeight=4;" parent="IdJ8eYHZcSURCVZ-z_sK-9" vertex="1">
          <mxGeometry x="1" width="20" height="20" relative="1" as="geometry">
            <mxPoint x="-27" y="7" as="offset" />
          </mxGeometry>
        </mxCell>
        <mxCell id="IdJ8eYHZcSURCVZ-z_sK-14" style="edgeStyle=orthogonalEdgeStyle;rounded=0;orthogonalLoop=1;jettySize=auto;html=1;startArrow=classic;startFill=1;" parent="1" source="IdJ8eYHZcSURCVZ-z_sK-12" target="IdJ8eYHZcSURCVZ-z_sK-7" edge="1">
          <mxGeometry relative="1" as="geometry" />
        </mxCell>
        <mxCell id="IdJ8eYHZcSURCVZ-z_sK-12" value="&lt;b&gt;Usecase&lt;/b&gt;" style="html=1;dropTarget=0;whiteSpace=wrap;" parent="1" vertex="1">
          <mxGeometry x="310" y="334" width="150" height="50" as="geometry" />
        </mxCell>
        <mxCell id="IdJ8eYHZcSURCVZ-z_sK-13" value="" style="shape=module;jettyWidth=8;jettyHeight=4;" parent="IdJ8eYHZcSURCVZ-z_sK-12" vertex="1">
          <mxGeometry x="1" width="20" height="20" relative="1" as="geometry">
            <mxPoint x="-27" y="7" as="offset" />
          </mxGeometry>
        </mxCell>
        <mxCell id="IdJ8eYHZcSURCVZ-z_sK-17" style="edgeStyle=orthogonalEdgeStyle;rounded=0;orthogonalLoop=1;jettySize=auto;html=1;entryX=0.5;entryY=0;entryDx=0;entryDy=0;startArrow=classic;startFill=1;" parent="1" source="IdJ8eYHZcSURCVZ-z_sK-15" target="IdJ8eYHZcSURCVZ-z_sK-12" edge="1">
          <mxGeometry relative="1" as="geometry" />
        </mxCell>
        <mxCell id="IdJ8eYHZcSURCVZ-z_sK-15" value="&lt;b&gt;Controller&lt;/b&gt;" style="html=1;dropTarget=0;whiteSpace=wrap;" parent="1" vertex="1">
          <mxGeometry x="310" y="252" width="150" height="50" as="geometry" />
        </mxCell>
        <mxCell id="IdJ8eYHZcSURCVZ-z_sK-16" value="" style="shape=module;jettyWidth=8;jettyHeight=4;" parent="IdJ8eYHZcSURCVZ-z_sK-15" vertex="1">
          <mxGeometry x="1" width="20" height="20" relative="1" as="geometry">
            <mxPoint x="-27" y="7" as="offset" />
          </mxGeometry>
        </mxCell>
        <mxCell id="IdJ8eYHZcSURCVZ-z_sK-18" value="PostgresSQL" style="shape=cylinder;whiteSpace=wrap;html=1;boundedLbl=1;backgroundOutline=1;" parent="1" vertex="1">
          <mxGeometry x="670" y="430" width="90" height="130" as="geometry" />
        </mxCell>
        <mxCell id="IdJ8eYHZcSURCVZ-z_sK-21" value="Kubernets" style="shape=umlFrame;whiteSpace=wrap;html=1;pointerEvents=0;" parent="1" vertex="1">
          <mxGeometry x="53" y="620" width="630" height="350" as="geometry" />
        </mxCell>
        <mxCell id="IdJ8eYHZcSURCVZ-z_sK-26" value="Cluster" style="swimlane;" parent="1" vertex="1">
          <mxGeometry x="190" y="640" width="460" height="310" as="geometry" />
        </mxCell>
        <mxCell id="IdJ8eYHZcSURCVZ-z_sK-43" style="edgeStyle=orthogonalEdgeStyle;rounded=0;orthogonalLoop=1;jettySize=auto;html=1;entryX=0;entryY=0.5;entryDx=0;entryDy=0;" parent="IdJ8eYHZcSURCVZ-z_sK-26" source="IdJ8eYHZcSURCVZ-z_sK-31" target="IdJ8eYHZcSURCVZ-z_sK-35" edge="1">
          <mxGeometry relative="1" as="geometry" />
        </mxCell>
        <mxCell id="IdJ8eYHZcSURCVZ-z_sK-44" style="edgeStyle=orthogonalEdgeStyle;rounded=0;orthogonalLoop=1;jettySize=auto;html=1;" parent="IdJ8eYHZcSURCVZ-z_sK-26" source="IdJ8eYHZcSURCVZ-z_sK-31" edge="1">
          <mxGeometry relative="1" as="geometry">
            <mxPoint x="70" y="110" as="targetPoint" />
          </mxGeometry>
        </mxCell>
        <mxCell id="IdJ8eYHZcSURCVZ-z_sK-31" value="" style="aspect=fixed;sketch=0;html=1;dashed=0;whitespace=wrap;verticalLabelPosition=bottom;verticalAlign=top;fillColor=#2875E2;strokeColor=#ffffff;points=[[0.005,0.63,0],[0.1,0.2,0],[0.9,0.2,0],[0.5,0,0],[0.995,0.63,0],[0.72,0.99,0],[0.5,1,0],[0.28,0.99,0]];shape=mxgraph.kubernetes.icon2;kubernetesLabel=1;prIcon=hpa" parent="IdJ8eYHZcSURCVZ-z_sK-26" vertex="1">
          <mxGeometry x="20" y="45" width="62.5" height="60" as="geometry" />
        </mxCell>
        <mxCell id="IdJ8eYHZcSURCVZ-z_sK-38" value="" style="group" parent="IdJ8eYHZcSURCVZ-z_sK-26" vertex="1" connectable="0">
          <mxGeometry x="162" y="40" width="166" height="100" as="geometry" />
        </mxCell>
        <mxCell id="IdJ8eYHZcSURCVZ-z_sK-35" value="Deployment" style="rounded=1;whiteSpace=wrap;html=1;" parent="IdJ8eYHZcSURCVZ-z_sK-38" vertex="1">
          <mxGeometry width="166" height="70" as="geometry" />
        </mxCell>
        <mxCell id="IdJ8eYHZcSURCVZ-z_sK-36" value="Replica Set" style="rounded=1;whiteSpace=wrap;html=1;" parent="IdJ8eYHZcSURCVZ-z_sK-38" vertex="1">
          <mxGeometry x="23" y="60" width="120" height="40" as="geometry" />
        </mxCell>
        <mxCell id="IdJ8eYHZcSURCVZ-z_sK-39" value="" style="rounded=1;whiteSpace=wrap;html=1;dashed=1;dashPattern=8 8;" parent="IdJ8eYHZcSURCVZ-z_sK-26" vertex="1">
          <mxGeometry x="30" y="170" width="400" height="120" as="geometry" />
        </mxCell>
        <mxCell id="IdJ8eYHZcSURCVZ-z_sK-33" value="" style="aspect=fixed;sketch=0;html=1;dashed=0;whitespace=wrap;verticalLabelPosition=bottom;verticalAlign=top;fillColor=#2875E2;strokeColor=#ffffff;points=[[0.005,0.63,0],[0.1,0.2,0],[0.9,0.2,0],[0.5,0,0],[0.995,0.63,0],[0.72,0.99,0],[0.5,1,0],[0.28,0.99,0]];shape=mxgraph.kubernetes.icon2;kubernetesLabel=1;prIcon=node" parent="IdJ8eYHZcSURCVZ-z_sK-26" vertex="1">
          <mxGeometry x="40" y="180" width="50" height="48" as="geometry" />
        </mxCell>
        <mxCell id="IdJ8eYHZcSURCVZ-z_sK-40" value="" style="rounded=1;whiteSpace=wrap;html=1;dashed=1;dashPattern=8 8;" parent="IdJ8eYHZcSURCVZ-z_sK-26" vertex="1">
          <mxGeometry x="130" y="185" width="220" height="90" as="geometry" />
        </mxCell>
        <mxCell id="IdJ8eYHZcSURCVZ-z_sK-32" value="" style="aspect=fixed;sketch=0;html=1;dashed=0;whitespace=wrap;verticalLabelPosition=bottom;verticalAlign=top;fillColor=#2875E2;strokeColor=#ffffff;points=[[0.005,0.63,0],[0.1,0.2,0],[0.9,0.2,0],[0.5,0,0],[0.995,0.63,0],[0.72,0.99,0],[0.5,1,0],[0.28,0.99,0]];shape=mxgraph.kubernetes.icon2;kubernetesLabel=1;prIcon=pod" parent="IdJ8eYHZcSURCVZ-z_sK-26" vertex="1">
          <mxGeometry x="150" y="206" width="50" height="48" as="geometry" />
        </mxCell>
        <mxCell id="IdJ8eYHZcSURCVZ-z_sK-41" value="" style="aspect=fixed;sketch=0;html=1;dashed=0;whitespace=wrap;verticalLabelPosition=bottom;verticalAlign=top;fillColor=#2875E2;strokeColor=#ffffff;points=[[0.005,0.63,0],[0.1,0.2,0],[0.9,0.2,0],[0.5,0,0],[0.995,0.63,0],[0.72,0.99,0],[0.5,1,0],[0.28,0.99,0]];shape=mxgraph.kubernetes.icon2;kubernetesLabel=1;prIcon=pod" parent="IdJ8eYHZcSURCVZ-z_sK-26" vertex="1">
          <mxGeometry x="220" y="206" width="50" height="48" as="geometry" />
        </mxCell>
        <mxCell id="IdJ8eYHZcSURCVZ-z_sK-42" value="" style="aspect=fixed;sketch=0;html=1;dashed=0;whitespace=wrap;verticalLabelPosition=bottom;verticalAlign=top;fillColor=#2875E2;strokeColor=#ffffff;points=[[0.005,0.63,0],[0.1,0.2,0],[0.9,0.2,0],[0.5,0,0],[0.995,0.63,0],[0.72,0.99,0],[0.5,1,0],[0.28,0.99,0]];shape=mxgraph.kubernetes.icon2;kubernetesLabel=1;prIcon=pod" parent="IdJ8eYHZcSURCVZ-z_sK-26" vertex="1">
          <mxGeometry x="283.5" y="206" width="50" height="48" as="geometry" />
        </mxCell>
        <mxCell id="IdJ8eYHZcSURCVZ-z_sK-45" style="edgeStyle=orthogonalEdgeStyle;rounded=0;orthogonalLoop=1;jettySize=auto;html=1;entryX=0.5;entryY=0;entryDx=0;entryDy=0;entryPerimeter=0;exitX=0.5;exitY=1;exitDx=0;exitDy=0;" parent="IdJ8eYHZcSURCVZ-z_sK-26" source="IdJ8eYHZcSURCVZ-z_sK-36" target="IdJ8eYHZcSURCVZ-z_sK-32" edge="1">
          <mxGeometry relative="1" as="geometry">
            <mxPoint x="240" y="140" as="sourcePoint" />
            <Array as="points">
              <mxPoint x="245" y="160" />
              <mxPoint x="175" y="160" />
            </Array>
          </mxGeometry>
        </mxCell>
        <mxCell id="IdJ8eYHZcSURCVZ-z_sK-46" style="edgeStyle=orthogonalEdgeStyle;rounded=0;orthogonalLoop=1;jettySize=auto;html=1;entryX=0.5;entryY=0;entryDx=0;entryDy=0;entryPerimeter=0;" parent="IdJ8eYHZcSURCVZ-z_sK-26" target="IdJ8eYHZcSURCVZ-z_sK-41" edge="1">
          <mxGeometry relative="1" as="geometry">
            <mxPoint x="250" y="140" as="sourcePoint" />
            <Array as="points">
              <mxPoint x="245" y="140" />
            </Array>
          </mxGeometry>
        </mxCell>
        <mxCell id="IdJ8eYHZcSURCVZ-z_sK-47" style="edgeStyle=orthogonalEdgeStyle;rounded=0;orthogonalLoop=1;jettySize=auto;html=1;entryX=0.5;entryY=0;entryDx=0;entryDy=0;entryPerimeter=0;exitX=0.5;exitY=1;exitDx=0;exitDy=0;" parent="IdJ8eYHZcSURCVZ-z_sK-26" source="IdJ8eYHZcSURCVZ-z_sK-36" target="IdJ8eYHZcSURCVZ-z_sK-42" edge="1">
          <mxGeometry relative="1" as="geometry">
            <Array as="points">
              <mxPoint x="245" y="160" />
              <mxPoint x="309" y="160" />
              <mxPoint x="309" y="180" />
              <mxPoint x="308" y="180" />
            </Array>
          </mxGeometry>
        </mxCell>
        <mxCell id="IdJ8eYHZcSURCVZ-z_sK-48" style="edgeStyle=orthogonalEdgeStyle;rounded=0;orthogonalLoop=1;jettySize=auto;html=1;entryX=0;entryY=0.5;entryDx=0;entryDy=0;" parent="1" source="IdJ8eYHZcSURCVZ-z_sK-34" target="IdJ8eYHZcSURCVZ-z_sK-26" edge="1">
          <mxGeometry relative="1" as="geometry" />
        </mxCell>
        <mxCell id="IdJ8eYHZcSURCVZ-z_sK-34" value="" style="aspect=fixed;sketch=0;html=1;dashed=0;whitespace=wrap;verticalLabelPosition=bottom;verticalAlign=top;fillColor=#2875E2;strokeColor=#ffffff;points=[[0.005,0.63,0],[0.1,0.2,0],[0.9,0.2,0],[0.5,0,0],[0.995,0.63,0],[0.72,0.99,0],[0.5,1,0],[0.28,0.99,0]];shape=mxgraph.kubernetes.icon2;kubernetesLabel=1;prIcon=svc" parent="1" vertex="1">
          <mxGeometry x="92.5" y="765" width="62.5" height="60" as="geometry" />
        </mxCell>
        <mxCell id="6th8OZCHbjT68Wy_4abg-2" style="edgeStyle=orthogonalEdgeStyle;rounded=0;orthogonalLoop=1;jettySize=auto;html=1;entryX=0.5;entryY=0;entryDx=0;entryDy=0;entryPerimeter=0;exitX=-0.004;exitY=0.394;exitDx=0;exitDy=0;exitPerimeter=0;" edge="1" parent="1" source="IdJ8eYHZcSURCVZ-z_sK-2" target="IdJ8eYHZcSURCVZ-z_sK-34">
          <mxGeometry relative="1" as="geometry">
            <Array as="points">
              <mxPoint x="124" y="366" />
            </Array>
          </mxGeometry>
        </mxCell>
      </root>
    </mxGraphModel>
  </diagram>
</mxfile>
